<?xml version="1.0" encoding="utf-8"?>
<!-- Generator: Adobe Illustrator 27.0.0, SVG Export Plug-In . SVG Version: 6.00 Build 0)  -->
<svg version="1.1" id="Camada_1" xmlns="http://www.w3.org/2000/svg" xmlns:xlink="http://www.w3.org/1999/xlink" x="0px" y="0px"
	 viewBox="0 0 200 200" style="enable-background:new 0 0 200 200;" xml:space="preserve">
<style type="text/css">
	.st0{fill:#FFFFFF;}
	.st1{fill:#2351db;}
</style>
<g>
	<path class="st0" d="M194,19.5c0,53.6,0,107.1,0,160.7c-0.6,1.4-0.3,3.1-1.1,4.4c-2.8,5.2-6.7,8.8-12.9,9.2c-2,0.1-4,0.2-6.1,0.2
		c-50.4,0-100.7,0-151.1,0c-2.7,0-5.4,0-7.9-1.2c-6.4-3.2-9.5-8.3-9.4-15.5c0.1-7.6,0-15.2,0-22.8c0-44,0-88,0-132
		c0-2.7,0-5.5,1.3-8.1C9.5,9.7,13,6.3,18.6,5.8c0.4,0,0.7,0,1.1-0.2c53.4,0,106.9,0,160.3,0c1.6,0.6,3.4,0.3,4.9,1.1
		c4.6,2.5,8.1,5.9,8.7,11.4C193.7,18.6,193.7,19.1,194,19.5z"/>
	<path class="st1" d="M109,86.2c2.5-2.8,4.9-5.4,7.9-7.5c4.3-2.9,9-4.4,14-5c8.1-1,16-0.7,23.6,2.6c7.7,3.3,12.5,9.4,15.6,17
		c3.2,8.2,4,16.8,4,25.4c0.1,16.3,0.1,32.6,0.1,48.9c0,3.6-1.8,5.4-5.4,5.4c-7,0-14,0-21,0c-3.6,0-5.4-1.8-5.4-5.5
		c0-15.4,0-30.8,0-46.1c0-3.9-0.4-7.8-1.8-11.6c-2.1-5.8-6-9.2-12.2-9.8c-7.1-0.7-12.6,1.8-16,8.2c-2.4,4.4-3.5,9.2-3.4,14.3
		c0,14.8,0,29.7,0,44.5c0,4.3-1.7,6-6,6c-6.4,0-12.9,0-19.3,0c-4,0-5.8-1.7-5.8-5.7c0-29,0-58,0-86.9c0-4,1.8-5.8,5.7-5.8
		c6.6,0,13.2,0,19.9,0c3.7,0,5.5,1.8,5.5,5.5C109,82.2,109,84.2,109,86.2z"/>
	<path class="st1" d="M32.9,123.7c0-14.3,0-28.5,0-42.8c0-4.4,1.8-6.2,6.2-6.2c6.3,0,12.6,0,18.9,0c4,0,5.8,1.9,5.8,5.9
		c0,28.9,0,57.8,0,86.7c0,3.9-1.8,5.8-5.7,5.8c-6.5,0-13,0-19.5,0c-3.9,0-5.8-1.9-5.8-5.9C32.9,152.6,32.9,138.2,32.9,123.7z"/>
	<path class="st1" d="M48.5,66.3c-11,0-20-8.8-20.1-19.9c-0.1-11.1,8.8-20.1,19.9-20.2c11-0.1,20.1,9,20.1,20.1
		C68.5,57.3,59.6,66.3,48.5,66.3z"/>
</g>
</svg>
