<?xml version="1.0" encoding="UTF-8"?>
<svg width="207px" height="25px" viewBox="0 0 207 25" version="1.1" xmlns="http://www.w3.org/2000/svg" xmlns:xlink="http://www.w3.org/1999/xlink">
    <!-- Generator: Sketch 63.1 (92452) - https://sketch.com -->
    <title>logo-white-horizontal</title>
    <desc>Created with Sketch.</desc>
    <defs>
        <polygon id="path-1" points="0.381 0.154 17.855 0.154 17.855 17.94 0.381 17.94"></polygon>
        <polygon id="path-3" points="0.335 0.226 58.041 0.226 58.041 24.94 0.335 24.94"></polygon>
        <polygon id="path-5" points="0.06 0.183 173.878 0.183 173.878 24.563 0.06 24.563"></polygon>
    </defs>
    <g id="Page-1" stroke="none" stroke-width="1" fill="none" fill-rule="evenodd">
        <g id="Desktop-HD" transform="translate(-911.000000, -1005.000000)">
            <g id="logo-white-horizontal" transform="translate(911.000000, 1005.000000)">
                <g id="Group-3" transform="translate(116.000000, 7.000000)">
                    <mask id="mask-2" fill="white">
                        <use xlink:href="#path-1"></use>
                    </mask>
                    <g id="Clip-2"></g>
                    <path d="M4.876,7.489 C5.383,5.326 6.972,4.075 9.304,4.075 C11.129,4.075 12.954,5.055 13.495,7.489 L4.876,7.489 Z M9.304,0.154 C3.998,0.154 0.381,4.041 0.381,9.077 C0.381,14.113 3.964,18 9.642,18 C12.887,18 15.422,16.682 17.01,14.384 L13.495,12.356 C12.751,13.336 11.399,14.046 9.71,14.046 C7.411,14.046 5.552,13.099 4.944,10.869 L17.686,10.869 C17.787,10.294 17.855,9.719 17.855,9.077 C17.855,4.109 14.306,0.154 9.304,0.154 L9.304,0.154 Z" id="Fill-1" fill="#143d6d" mask="url(#mask-2)"></path>
                </g>
                <path d="M107.154,7.154 C104.89,7.154 103.132,7.999 102.118,9.52 L102.118,7.628 L97.758,7.628 L97.758,24.527 L102.118,24.527 L102.118,15.401 C102.118,12.461 103.707,11.21 105.836,11.21 C107.796,11.21 109.182,12.393 109.182,14.691 L109.182,24.527 L113.542,24.527 L113.542,14.151 C113.542,9.655 110.737,7.154 107.154,7.154" id="Fill-4" fill="#143d6d"></path>
                <polygon id="Fill-5" fill="#143d6d" points="89.41 24.527 93.77 24.527 93.77 7.628 89.41 7.628"></polygon>
                <path d="M91.573,0.226 C90.12,0.226 88.903,1.476 88.903,2.93 C88.903,4.383 90.12,5.6 91.573,5.6 C93.06,5.6 94.277,4.383 94.277,2.93 C94.277,1.476 93.06,0.226 91.573,0.226" id="Fill-6" fill="#143d6d"></path>
                <polyline id="Fill-7" fill="#143d6d" points="79.541 18.037 76.465 7.628 72.342 7.628 69.266 18.004 66.393 7.628 61.763 7.628 67.137 24.527 71.294 24.527 74.404 14.286 77.513 24.527 81.67 24.527 87.044 7.628 82.414 7.628 79.541 18.037"></polyline>
                <path d="M164.341,16.483 C164.341,21.012 161.84,22.769 158.866,22.769 C155.925,22.769 154.269,21.012 154.269,18.004 L154.269,7.628 L152.039,7.628 L152.039,18.004 C152.039,22.229 154.54,24.932 158.663,24.932 C161.063,24.932 163.023,24.02 164.341,21.891 L164.341,24.527 L166.572,24.527 L166.572,7.628 L164.341,7.628 L164.341,16.483" id="Fill-8" fill="#143d6d"></path>
                <path d="M139.026,12.055 C139.026,10.23 140.818,9.385 142.575,9.385 C144.197,9.385 145.921,10.027 146.631,11.751 L148.49,10.67 C147.51,8.574 145.346,7.222 142.575,7.222 C139.195,7.222 136.795,9.351 136.795,12.055 C136.795,18.274 146.665,15.874 146.665,20.065 C146.665,22.06 144.772,22.769 142.778,22.769 C140.513,22.769 138.756,21.654 138.147,19.93 L136.255,21.046 C137.1,23.209 139.398,24.932 142.778,24.932 C146.394,24.932 148.895,22.938 148.895,20.065 C148.895,13.847 139.026,16.246 139.026,12.055" id="Fill-9" fill="#143d6d"></path>
                <g id="Group-13" transform="translate(176.000000, 2.000000)" fill="#143d6d">
                    <path d="M15.211,13.03 C15.65,9.717 18.185,7.385 21.734,7.385 C24.641,7.385 27.345,9.312 27.818,13.03 L15.211,13.03 Z M30.116,14.145 C30.116,9.514 26.905,5.222 21.734,5.222 C16.495,5.222 12.913,9.109 12.913,14.077 C12.913,19.181 16.563,22.932 21.903,22.932 C25.317,22.932 27.919,21.344 29.339,19.046 L27.378,17.896 C26.466,19.519 24.607,20.769 21.937,20.769 C18.354,20.769 15.684,18.64 15.211,15.193 L30.049,15.193 C30.082,14.855 30.116,14.483 30.116,14.145 L30.116,14.145 Z" id="Fill-10"></path>
                    <path d="M6.356,0.896 L4.125,1.572 L4.125,5.628 L0.576,5.628 L0.576,7.791 L4.125,7.791 L4.125,18.032 C4.125,22.087 6.66,23.203 11.223,22.527 L11.223,20.567 C7.944,20.702 6.356,20.938 6.356,18.032 L6.356,7.791 L11.223,7.791 L11.223,5.628 L6.356,5.628 L6.356,0.896" id="Fill-12"></path>
                </g>
                <polygon id="Fill-14" fill="#143d6d" points="171.304 24.527 173.534 24.527 173.534 7.628 171.304 7.628"></polygon>
                <g id="Group-18" transform="translate(116.000000, 0.000000)">
                    <mask id="mask-4" fill="white">
                        <use xlink:href="#path-3"></use>
                    </mask>
                    <g id="Clip-16"></g>
                    <path d="M56.419,0.226 C55.506,0.226 54.797,0.969 54.797,1.848 C54.797,2.727 55.506,3.47 56.419,3.47 C57.332,3.47 58.041,2.727 58.041,1.848 C58.041,0.969 57.332,0.226 56.419,0.226" id="Fill-15" fill="#143d6d" mask="url(#mask-4)"></path>
                    <path d="M4.821,14.509 C5.327,12.35 6.913,11.102 9.24,11.102 C11.061,11.102 12.883,12.081 13.422,14.509 L4.821,14.509 Z M9.24,7.19 C3.944,7.19 0.335,11.069 0.335,16.094 C0.335,21.12 3.911,24.999 9.577,24.999 C12.815,24.999 15.345,23.684 16.93,21.39 L13.422,19.366 C12.68,20.344 11.331,21.053 9.645,21.053 C7.351,21.053 5.496,20.108 4.889,17.882 L17.605,17.882 C17.706,17.309 17.774,16.735 17.774,16.094 C17.774,11.136 14.232,7.19 9.24,7.19 L9.24,7.19 Z" id="Fill-17" fill="#143d6d" mask="url(#mask-4)"></path>
                </g>
                <path d="M107.127,7.19 C104.867,7.19 103.113,8.033 102.101,9.551 L102.101,7.662 L97.75,7.662 L97.75,24.527 L102.101,24.527 L102.101,15.42 C102.101,12.485 103.687,11.237 105.812,11.237 C107.768,11.237 109.151,12.418 109.151,14.711 L109.151,24.527 L113.502,24.527 L113.502,14.172 C113.502,9.686 110.702,7.19 107.127,7.19" id="Fill-19" fill="#143d6d"></path>
                <polygon id="Fill-20" fill="#143d6d" points="89.419 24.527 93.77 24.527 93.77 7.662 89.419 7.662"></polygon>
                <path d="M91.578,0.275 C90.127,0.275 88.913,1.523 88.913,2.973 C88.913,4.424 90.127,5.638 91.578,5.638 C93.062,5.638 94.276,4.424 94.276,2.973 C94.276,1.523 93.062,0.275 91.578,0.275" id="Fill-21" fill="#143d6d"></path>
                <polyline id="Fill-22" fill="#143d6d" points="79.57 18.051 76.5 7.662 72.385 7.662 69.316 18.017 66.449 7.662 61.828 7.662 67.191 24.527 71.34 24.527 74.443 14.307 77.546 24.527 81.695 24.527 87.058 7.662 82.437 7.662 79.57 18.051"></polyline>
                <path d="M164.198,16.499 C164.198,21.019 161.702,22.773 158.734,22.773 C155.799,22.773 154.146,21.019 154.146,18.017 L154.146,7.662 L151.92,7.662 L151.92,18.017 C151.92,22.233 154.416,24.932 158.531,24.932 C160.926,24.932 162.882,24.021 164.198,21.896 L164.198,24.527 L166.424,24.527 L166.424,7.662 L164.198,7.662 L164.198,16.499" id="Fill-23" fill="#143d6d"></path>
                <path d="M138.934,12.081 C138.934,10.259 140.722,9.416 142.476,9.416 C144.095,9.416 145.815,10.057 146.523,11.777 L148.379,10.698 C147.4,8.606 145.242,7.257 142.476,7.257 C139.103,7.257 136.708,9.382 136.708,12.081 C136.708,18.287 146.557,15.892 146.557,20.075 C146.557,22.065 144.668,22.773 142.678,22.773 C140.418,22.773 138.664,21.66 138.057,19.94 L136.168,21.053 C137.012,23.211 139.305,24.932 142.678,24.932 C146.287,24.932 148.783,22.942 148.783,20.075 C148.783,13.868 138.934,16.263 138.934,12.081" id="Fill-24" fill="#143d6d"></path>
                <g id="Group-28" transform="translate(176.000000, 2.000000)" fill="#143d6d">
                    <path d="M15.013,13.049 C15.452,9.743 17.981,7.416 21.523,7.416 C24.424,7.416 27.122,9.339 27.594,13.049 L15.013,13.049 Z M29.888,14.162 C29.888,9.541 26.684,5.257 21.523,5.257 C16.295,5.257 12.72,9.136 12.72,14.094 C12.72,19.188 16.362,22.932 21.692,22.932 C25.098,22.932 27.696,21.346 29.112,19.053 L27.156,17.906 C26.245,19.525 24.39,20.773 21.725,20.773 C18.15,20.773 15.485,18.648 15.013,15.208 L29.821,15.208 C29.854,14.87 29.888,14.499 29.888,14.162 L29.888,14.162 Z" id="Fill-25"></path>
                    <path d="M6.176,0.94 L3.95,1.614 L3.95,5.662 L0.408,5.662 L0.408,7.821 L3.95,7.821 L3.95,18.041 C3.95,22.088 6.479,23.201 11.033,22.527 L11.033,20.571 C7.761,20.705 6.176,20.942 6.176,18.041 L6.176,7.821 L11.033,7.821 L11.033,5.662 L6.176,5.662 L6.176,0.94" id="Fill-27"></path>
                </g>
                <polygon id="Fill-29" fill="#143d6d" points="171.146 24.527 173.372 24.527 173.372 7.662 171.146 7.662"></polygon>
                <g id="Group-33">
                    <mask id="mask-6" fill="white">
                        <use xlink:href="#path-5"></use>
                    </mask>
                    <g id="Clip-31"></g>
                    <path d="M172.259,0.275 C171.349,0.275 170.64,1.017 170.64,1.894 C170.64,2.771 171.349,3.513 172.259,3.513 C173.17,3.513 173.878,2.771 173.878,1.894 C173.878,1.017 173.17,0.275 172.259,0.275" id="Fill-30" fill="#143d6d" mask="url(#mask-6)"></path>
                    <path d="M34.701,2.741 L18.63,18.813 C16.977,20.466 14.287,20.467 12.634,18.813 L5.75,11.93 L5.684,11.862 C4.098,10.21 4.126,7.549 5.746,5.929 C7.4,4.276 10.089,4.276 11.742,5.929 L19.076,13.263 L22.263,10.075 L14.93,2.741 C11.519,-0.67 5.969,-0.67 2.558,2.741 C-0.853,6.152 -0.853,11.702 2.558,15.113 L9.446,22 C11.098,23.653 13.295,24.563 15.632,24.563 C17.968,24.563 20.165,23.653 21.817,22 L37.885,5.933 L37.952,5.867 C39.604,4.282 42.266,4.309 43.885,5.929 C45.538,7.582 45.538,10.272 43.885,11.925 L37.003,18.807 L36.934,18.875 C35.282,20.46 32.62,20.432 31.001,18.813 L30.555,18.367 L27.368,21.555 L27.813,22 C29.463,23.65 31.66,24.559 33.999,24.559 C36.338,24.559 38.535,23.65 40.185,22 L47.073,15.113 C50.484,11.702 50.484,6.152 47.073,2.741 C43.662,-0.67 38.112,-0.67 34.701,2.741" id="Fill-32" fill="#143d6d" mask="url(#mask-6)"></path>
                </g>
            </g>
        </g>
    </g>
</svg>