<?xml version="1.0" encoding="utf-8"?>
<!-- Generator: Adobe Illustrator 26.5.0, SVG Export Plug-In . SVG Version: 6.00 Build 0)  -->
<svg version="1.1" id="Camada_1" xmlns="http://www.w3.org/2000/svg" xmlns:xlink="http://www.w3.org/1999/xlink" x="0px" y="0px"
	 viewBox="0 0 380 78" style="enable-background:new 0 0 380 78;" xml:space="preserve">
<style type="text/css">
	.st0{fill:#FFFFFF;}
</style>
<g>
	<path class="st0" d="M117,35.3v-8.6h-10.2v-14h-9.4v13.9h-7.8v8.6h7.8v19.2c0,3.4,0.9,6.4,2.4,8.6c1.8,2.6,4.5,3.9,7.8,3.9h9v-9
		h-5.2c-3.6,0-4.6-0.8-4.6-3.5V35.3H117z"/>
	<polygon class="st0" points="6.3,26.7 6.3,67 15.7,67 15.7,36.3 38,36.3 38,26.7 	"/>
	<polygon class="st0" points="220.3,26.7 198.8,52.3 198.8,26.7 189.4,26.7 167.9,52.3 167.9,26.7 158.5,26.7 137,52.3 137,26.7 
		127.6,26.7 127.6,67 137,67 158.5,41.4 158.5,67 167.9,67 189.4,41.4 189.4,67 198.8,67 232.6,26.7 	"/>
	<polygon class="st0" points="84.5,67 70.4,46.8 84.5,26.7 73,26.7 56.2,50.7 56.2,9.8 46.8,9.8 46.8,67 56.2,67 64.7,55 73,67 	"/>
	<path class="st0" d="M266.9,26.7v3.1l0.4,1.5c-2.7-3.1-9-5.8-14.3-5.8c-5.8,0-11,2.1-14.8,6.1c-3.7,3.9-5.8,9.2-5.8,15
		c0,12.3,8.8,21.7,20.6,21.7c5.4,0,11.4-3.2,14.3-7l-0.4,1.9V67h9.4V26.7H266.9z M253.4,59.2c-3.4,0-6.3-1.3-8.4-3.7
		c-2-2.3-3.1-5.5-3.1-9c0-7.3,4.6-12.2,11.5-12.2c7.2,0,11.6,4.6,11.6,12.2c-0.2,3.4-1.3,6.6-3.3,8.9
		C259.7,57.9,256.6,59.3,253.4,59.2z"/>
	<path class="st0" d="M373.7,46.2c0-5.6-2-10.8-5.9-14.6c-4-4-9.4-6.2-15.7-6.2c-6.2,0-11.9,2.1-16,6s-6.2,9.2-6.2,15.1
		c0,6,2.2,11.5,6.2,15.3c4.3,4.1,10.4,6.3,17.7,6.3c12.7,0,18-9.3,19-12.9l0.2-0.8h-10.4l-0.1,0.4c-1.3,3.5-6.3,4.8-9.4,4.8
		c-8.2,0-12.1-5.5-12.4-9.7h33L373.7,46.2z M340.8,42.9c0.4-4.6,4.7-9.4,11.5-9.4c6.1,0,10.5,3.8,10.8,9.4H340.8z"/>
	<polygon class="st0" points="317.9,26.7 296.5,52.3 296.5,26.7 287,26.7 287,67 296.5,67 330.3,26.7 	"/>
</g>
</svg>
