<?xml version="1.0" encoding="utf-8"?>
<!-- Generator: Adobe Illustrator 26.5.0, SVG Export Plug-In . SVG Version: 6.00 Build 0)  -->
<svg version="1.1" id="Camada_1" xmlns="http://www.w3.org/2000/svg" xmlns:xlink="http://www.w3.org/1999/xlink" x="0px" y="0px"
	 viewBox="0 0 240 78" style="enable-background:new 0 0 240 78;" xml:space="preserve">
<style type="text/css">
	.st0{fill:#FFB8DD;}
	.st1{fill:#2351DB;}
	.st2{fill:#57DEB7;}
	.st3{fill:#6A36E3;}
</style>
<g>
	<path class="st0" d="M117.6,35.9v-8.6h-10.2V13.4H98v13.9h-7.8v8.6H98v19.2c0,3.4,0.9,6.4,2.4,8.6c1.8,2.6,4.5,3.9,7.8,3.9h9v-9
		H112c-3.6,0-4.6-0.8-4.6-3.5V35.9H117.6z"/>
	<polygon class="st0" points="6.8,27.3 6.8,67.6 16.3,67.6 16.3,36.9 38.6,36.9 38.6,27.3 	"/>
	<polygon class="st0" points="220.9,27.3 199.4,52.9 199.4,27.3 189.9,27.3 168.5,52.9 168.5,27.3 159,27.3 137.6,52.9 137.6,27.3 
		128.1,27.3 128.1,67.6 137.6,67.6 159,42 159,67.6 168.5,67.6 189.9,42 189.9,67.6 199.4,67.6 233.2,27.3 	"/>
	<polygon class="st0" points="85.1,67.6 71,47.4 85.1,27.3 73.6,27.3 56.8,51.3 56.8,10.4 47.4,10.4 47.3,67.6 56.8,67.6 65.2,55.7 
		73.6,67.6 	"/>
</g>
<polygon class="st1" points="328.4,-22.4 320.1,-12.4 320.1,-22.4 316.4,-22.4 308,-12.4 308,-22.4 304.3,-22.4 296,-12.4 
	296,-22.4 292.3,-22.4 280.2,-22.4 280.2,-6.7 283.9,-6.7 283.9,-18.7 292.3,-18.7 292.3,-6.7 296,-6.7 304.3,-16.7 304.3,-6.7 
	308,-6.7 316.4,-16.7 316.4,-6.7 320.1,-6.7 333.2,-22.4 "/>
<polygon class="st2" points="328.4,13.6 320.1,23.6 320.1,13.6 316.4,13.6 308,23.6 308,13.6 304.3,13.6 296,23.6 296,13.6 
	292.3,13.6 280.2,13.6 280.2,29.3 283.9,29.3 283.9,17.4 292.3,17.4 292.3,29.3 296,29.3 304.3,19.4 304.3,29.3 308,29.3 
	316.4,19.4 316.4,29.3 320.1,29.3 333.2,13.6 "/>
<polygon class="st0" points="328.4,49.7 320.1,59.7 320.1,49.7 316.4,49.7 308,59.7 308,49.7 304.3,49.7 296,59.7 296,49.7 
	292.3,49.7 280.2,49.7 280.2,65.4 283.9,65.4 283.9,53.4 292.3,53.4 292.3,65.4 296,65.4 304.3,55.4 304.3,65.4 308,65.4 
	316.4,55.4 316.4,65.4 320.1,65.4 333.2,49.7 "/>
<polygon class="st3" points="328.4,85.7 320.1,95.7 320.1,85.7 316.4,85.7 308,95.7 308,85.7 304.3,85.7 296,95.7 296,85.7 
	292.3,85.7 280.2,85.7 280.2,101.4 283.9,101.4 283.9,89.5 292.3,89.5 292.3,101.4 296,101.4 304.3,91.4 304.3,101.4 308,101.4 
	316.4,91.4 316.4,101.4 320.1,101.4 333.2,85.7 "/>
</svg>
