<?xml version="1.0" encoding="utf-8"?>
<!-- Generator: Adobe Illustrator 26.5.0, SVG Export Plug-In . SVG Version: 6.00 Build 0)  -->
<svg version="1.1" id="Camada_1" xmlns="http://www.w3.org/2000/svg" xmlns:xlink="http://www.w3.org/1999/xlink" x="0px" y="0px"
	 viewBox="0 0 240 78" style="enable-background:new 0 0 240 78;" xml:space="preserve">
<style type="text/css">
	.st0{fill:#FFFFFF;}
</style>
<g>
	<path class="st0" d="M117.6,35.9v-8.6h-10.2V13.4H98v13.9h-7.8v8.6H98v19.2c0,3.4,0.9,6.4,2.4,8.6c1.8,2.6,4.5,3.9,7.8,3.9h9v-9
		H112c-3.6,0-4.6-0.8-4.6-3.5V35.9H117.6z"/>
	<polygon class="st0" points="6.8,27.3 6.8,67.6 16.3,67.6 16.3,36.9 38.6,36.9 38.6,27.3 	"/>
	<polygon class="st0" points="220.9,27.3 199.4,52.9 199.4,27.3 189.9,27.3 168.5,52.9 168.5,27.3 159,27.3 137.6,52.9 137.6,27.3 
		128.1,27.3 128.1,67.6 137.6,67.6 159,42 159,67.6 168.5,67.6 189.9,42 189.9,67.6 199.4,67.6 233.2,27.3 	"/>
	<polygon class="st0" points="85.1,67.6 71,47.4 85.1,27.3 73.6,27.3 56.8,51.3 56.8,10.4 47.4,10.4 47.3,67.6 56.8,67.6 65.2,55.7 
		73.6,67.6 	"/>
</g>
</svg>
