<?xml version="1.0" encoding="utf-8"?>
<!-- Generator: Adobe Illustrator 26.5.0, SVG Export Plug-In . SVG Version: 6.00 Build 0)  -->
<svg version="1.1" id="Camada_1" xmlns="http://www.w3.org/2000/svg" xmlns:xlink="http://www.w3.org/1999/xlink" x="0px" y="0px"
	 viewBox="0 0 524 78" style="enable-background:new 0 0 524 78;" xml:space="preserve">
<style type="text/css">
	.st0{fill:#2351DB;}
	.st1{fill:#57DEB7;}
	.st2{fill:#FFB8DD;}
	.st3{fill:#6A36E3;}
</style>
<g>
	<path class="st0" d="M64.6,25.4c-13.3,0-22.2,8.5-22.2,21.2c0,6.3,2.1,11.6,6.1,15.6s9.6,6,16.1,6c6.3,0,12-2.2,16.1-6.2
		c4-3.9,6.1-9.4,6.1-15.4C86.8,34.1,77.6,25.4,64.6,25.4z M64.6,34.6C75.8,34.6,77,43,77,46.7c0,7.8-4.6,12.5-12.4,12.5
		s-12.4-4.7-12.4-12.5C52.2,43,53.4,34.6,64.6,34.6L64.6,34.6z"/>
	<path class="st0" d="M125.9,52.6l-0.1,0.4c-0.5,1.6-3.3,6.1-10.2,6.1c-3.7,0-6.9-1.3-9.2-3.6c-2.2-2.3-3.4-5.5-3.4-9
		c0-7.4,4.6-12.1,12-12.1c7.3,0,10.2,4.8,10.5,6.1l0.1,0.4h9.8l-0.1-0.7c-0.8-6-6.9-14.8-20.2-14.8c-12.9,0-21.5,8.5-21.5,21.1
		c0,12.7,9.1,21.6,22.1,21.7c11.9-0.1,18.6-7.5,19.9-14.9l0.1-0.7C135.7,52.6,125.9,52.6,125.9,52.6z"/>
	<path class="st0" d="M229.5,46.2c0-5.6-2-10.8-5.9-14.6c-4-4-9.4-6.2-15.7-6.2s-11.9,2.1-16,6s-6.2,9.2-6.2,15.1
		c0,6,2.2,11.5,6.2,15.3c4.3,4.1,10.4,6.3,17.7,6.3c12.7,0,18-9.3,19-12.9l0.2-0.8h-10.4l-0.1,0.4c-1.3,3.5-6.3,4.8-9.4,4.8
		c-8.2,0-12.1-5.5-12.4-9.7h33L229.5,46.2L229.5,46.2z M196.6,42.9c0.4-4.6,4.7-9.4,11.5-9.4c6.1,0,10.5,3.8,10.8,9.4H196.6z"/>
	<path class="st0" d="M262.7,35.3v-8.6h-10.2v-14h-9.4v13.9h-7.8v8.6h7.8v19.2c0,3.4,0.9,6.4,2.4,8.6c1.8,2.6,4.5,3.9,7.8,3.9h9v-9
		h-5.2c-3.6,0-4.6-0.8-4.6-3.5V35.3H262.7z"/>
	<path class="st0" d="M412.6,26.7v3.1l0.4,1.5c-2.7-3.1-9-5.8-14.3-5.8c-5.8,0-11,2.1-14.8,6.1c-3.7,3.9-5.8,9.2-5.8,15
		c0,12.3,8.8,21.7,20.6,21.7c5.4,0,11.4-3.2,14.3-7l-0.4,1.9V67h9.4V26.7H412.6z M399.1,59.2c-3.4,0-6.3-1.3-8.4-3.7
		c-2-2.3-3.1-5.5-3.1-9c0-7.3,4.6-12.2,11.5-12.2c7.2,0,11.6,4.6,11.6,12.2c-0.2,3.4-1.3,6.6-3.3,8.9
		C405.4,57.9,402.3,59.3,399.1,59.2z"/>
	<path class="st0" d="M519.4,46.2c0-5.6-2-10.8-5.9-14.6c-4-4-9.4-6.2-15.7-6.2c-6.2,0-11.9,2.1-16,6s-6.2,9.2-6.2,15.1
		c0,6,2.2,11.5,6.2,15.3c4.3,4.1,10.4,6.3,17.7,6.3c12.7,0,18-9.3,19-12.9l0.2-0.8h-10.4l-0.1,0.4c-1.3,3.5-6.3,4.8-9.4,4.8
		c-8.2,0-12.1-5.5-12.4-9.7h33V46.2z M486.5,42.9c0.4-4.6,4.7-9.4,11.5-9.4c6.1,0,10.5,3.8,10.8,9.4H486.5z"/>
	<polygon class="st0" points="4.6,26.7 4.6,67 14,67 14,36.3 36.3,36.3 36.3,26.7 	"/>
	<polygon class="st0" points="366,26.7 344.5,52.3 344.5,26.7 335,26.7 313.6,52.3 313.6,26.7 304.1,26.7 282.7,52.3 282.7,26.7 
		273.2,26.7 273.2,67 282.7,67 304.1,41.4 304.1,67 313.6,67 335,41.4 335,67 344.5,67 378.3,26.7 	"/>
	<polygon class="st0" points="463.6,26.7 442.1,52.3 442.1,26.7 432.7,26.7 432.7,67 442.1,67 475.9,26.7 	"/>
	<polygon class="st0" points="182.2,67 168.1,46.8 182.2,26.7 170.7,26.7 153.9,50.7 153.9,9.8 144.5,9.8 144.5,67 153.9,67 
		162.3,55 170.7,67 	"/>
</g>
<polygon class="st0" points="639,-28.4 630.7,-18.4 630.7,-28.4 627,-28.4 618.6,-18.4 618.6,-28.4 615,-28.4 606.6,-18.4 
	606.6,-28.4 602.9,-28.4 590.9,-28.4 590.9,-12.7 594.5,-12.7 594.5,-24.7 602.9,-24.7 602.9,-12.7 606.6,-12.7 615,-22.7 
	615,-12.7 618.6,-12.7 627,-22.7 627,-12.7 630.7,-12.7 643.9,-28.4 "/>
<polygon class="st1" points="639,7.6 630.7,17.6 630.7,7.6 627,7.6 618.6,17.6 618.6,7.6 615,7.6 606.6,17.6 606.6,7.6 602.9,7.6 
	590.9,7.6 590.9,23.3 594.5,23.3 594.5,11.4 602.9,11.4 602.9,23.3 606.6,23.3 615,13.4 615,23.3 618.6,23.3 627,13.4 627,23.3 
	630.7,23.3 643.9,7.6 "/>
<polygon class="st2" points="639,43.7 630.7,53.7 630.7,43.7 627,43.7 618.6,53.7 618.6,43.7 615,43.7 606.6,53.7 606.6,43.7 
	602.9,43.7 590.9,43.7 590.9,59.4 594.5,59.4 594.5,47.4 602.9,47.4 602.9,59.4 606.6,59.4 615,49.4 615,59.4 618.6,59.4 627,49.4 
	627,59.4 630.7,59.4 643.9,43.7 "/>
<polygon class="st3" points="639,79.7 630.7,89.7 630.7,79.7 627,79.7 618.6,89.7 618.6,79.7 615,79.7 606.6,89.7 606.6,79.7 
	602.9,79.7 590.9,79.7 590.9,95.4 594.5,95.4 594.5,83.5 602.9,83.5 602.9,95.4 606.6,95.4 615,85.4 615,95.4 618.6,95.4 627,85.4 
	627,95.4 630.7,95.4 643.9,79.7 "/>
</svg>
