<?xml version="1.0" encoding="utf-8"?>
<!-- Generator: Adobe Illustrator 26.5.0, SVG Export Plug-In . SVG Version: 6.00 Build 0)  -->
<svg version="1.1" id="Camada_1" xmlns="http://www.w3.org/2000/svg" xmlns:xlink="http://www.w3.org/1999/xlink" x="0px" y="0px"
	 viewBox="0 0 156 60" style="enable-background:new 0 0 156 60;" xml:space="preserve">
<style type="text/css">
	.st0{fill:#2351DB;}
	.st1{fill:#57DEB7;}
	.st2{fill:#FFB8DD;}
	.st3{fill:#6A36E3;}
</style>
<polygon class="st0" points="133.7,9.9 112.2,35.5 112.2,9.9 102.7,9.9 81.3,35.5 81.3,9.9 71.8,9.9 50.4,35.5 50.4,9.9 40.9,9.9 
	10,9.9 10,50.1 19.5,50.1 19.5,19.5 40.9,19.5 40.9,50.1 50.4,50.1 71.8,24.5 71.8,50.1 81.3,50.1 102.7,24.5 102.7,50.1 
	112.2,50.1 146,9.9 "/>
<polygon class="st0" points="265.4,-31.4 257.1,-21.4 257.1,-31.4 253.4,-31.4 245,-21.4 245,-31.4 241.3,-31.4 233,-21.4 
	233,-31.4 229.3,-31.4 217.2,-31.4 217.2,-15.7 220.9,-15.7 220.9,-27.7 229.3,-27.7 229.3,-15.7 233,-15.7 241.3,-25.7 
	241.3,-15.7 245,-15.7 253.4,-25.7 253.4,-15.7 257.1,-15.7 270.2,-31.4 "/>
<polygon class="st1" points="265.4,4.6 257.1,14.6 257.1,4.6 253.4,4.6 245,14.6 245,4.6 241.3,4.6 233,14.6 233,4.6 229.3,4.6 
	217.2,4.6 217.2,20.3 220.9,20.3 220.9,8.4 229.3,8.4 229.3,20.3 233,20.3 241.3,10.4 241.3,20.3 245,20.3 253.4,10.4 253.4,20.3 
	257.1,20.3 270.2,4.6 "/>
<polygon class="st2" points="265.4,40.7 257.1,50.7 257.1,40.7 253.4,40.7 245,50.7 245,40.7 241.3,40.7 233,50.7 233,40.7 
	229.3,40.7 217.2,40.7 217.2,56.4 220.9,56.4 220.9,44.4 229.3,44.4 229.3,56.4 233,56.4 241.3,46.4 241.3,56.4 245,56.4 
	253.4,46.4 253.4,56.4 257.1,56.4 270.2,40.7 "/>
<polygon class="st3" points="265.4,76.7 257.1,86.7 257.1,76.7 253.4,76.7 245,86.7 245,76.7 241.3,76.7 233,86.7 233,76.7 
	229.3,76.7 217.2,76.7 217.2,92.4 220.9,92.4 220.9,80.5 229.3,80.5 229.3,92.4 233,92.4 241.3,82.4 241.3,92.4 245,92.4 
	253.4,82.4 253.4,92.4 257.1,92.4 270.2,76.7 "/>
</svg>
