<?xml version="1.0" encoding="utf-8"?>
<!-- Generator: Adobe Illustrator 25.4.1, SVG Export Plug-In . SVG Version: 6.00 Build 0)  -->
<svg version="1.1" id="Camada_1" xmlns="http://www.w3.org/2000/svg" xmlns:xlink="http://www.w3.org/1999/xlink" x="0px" y="0px"
	 viewBox="0 0 175.9 149" style="enable-background:new 0 0 175.9 149;" xml:space="preserve">
<style type="text/css">
	.st0{fill-rule:evenodd;clip-rule:evenodd;fill:#FFFFFF;}
	.st1{enable-background:new    ;}
	.st2{fill:#FFFFFF;}
</style>
<g>
	<path class="st0" d="M77.4,75.2c0.2,0.4,0.3,0.9,0.3,1.3c0,2.1-1.9,3.8-4.3,3.8c-2.4,0-4.3-1.7-4.3-3.8c0-0.3,0.1-0.7,0.1-1
		c0.2-0.7,0.7-1.4,1.3-1.9c0.6-0.5,1.3-0.8,2.1-0.9c0.2,0,0.5-0.1,0.8-0.1c0.1,0,0.2,0,0.4,0c0.8,0.1,1.6,0.3,2.2,0.8
		C76.6,73.9,77.1,74.5,77.4,75.2z M96.4,64c0,0.2,0.1,0.4,0.1,0.6c0,2.1-1.9,3.8-4.3,3.8c-2.4,0-4.3-1.7-4.3-3.8
		c0-0.2,0-0.4,0.1-0.6c0.2-1.5,1.5-2.7,3.1-3.1c0.4-0.1,0.8-0.1,1.2-0.1c0.4,0,0.8,0.1,1.2,0.1C94.9,61.3,96.1,62.5,96.4,64z
		 M112.2,58.1c-2.4,0-4.3-1.7-4.3-3.8c0-2.1,1.9-3.8,4.3-3.8s4.3,1.7,4.3,3.8C116.5,56.4,114.6,58.1,112.2,58.1z M76.7,53.5
		c0.1,0.3,0.1,0.5,0.1,0.8c0,2.1-1.9,3.8-4.3,3.8c-2.4,0-4.3-1.7-4.3-3.8c0-0.3,0-0.5,0.1-0.8c0.3-1.5,1.6-2.6,3.2-2.9
		c0.3-0.1,0.6-0.1,0.9-0.1c0.3,0,0.6,0,0.9,0.1C75.1,50.9,76.3,52,76.7,53.5z M92.2,38.9c2.4,0,4.3,1.7,4.3,3.8
		c0,2.1-1.9,3.8-4.3,3.8c-2.4,0-4.3-1.7-4.3-3.8C87.9,40.6,89.8,38.9,92.2,38.9z M72.5,37.2c-2.4,0-4.3-1.7-4.3-3.8
		c0-2.1,1.9-3.8,4.3-3.8c2.4,0,4.3,1.7,4.3,3.8C76.8,35.5,74.9,37.2,72.5,37.2z M131.9,6.6l1.3,4c-0.1,0-0.3,0.1-0.6,0.2
		c-0.5,0.2-1.1,0.4-1.8,0.7c-1.8,0.8-3.7,1.7-5.4,2.9c-1.3,0.8-2.4,1.7-3.4,2.7c3.8,0.5,6.7,3.7,6.7,7.6c0,4.2-3.3,7.5-7.5,7.7
		c-4.2,0.1-7.9-3.5-7.9-7.7c0-1.4,0.4-2.8,1.1-3.9c-5.1,0.4-8.9,2.5-11.8,6c-1.1,1.3-1.9,2.8-2.6,4.2c0,0-0.1,0.2-0.2,0.4
		c0,0,0,0,0,0c3.6,2.3,6.1,6.2,6.5,10.8c1.8-0.8,3.7-1.2,5.8-1.2c7.9,0,14.3,6.4,14.3,14.2c0,8.9-10.7,21-11.9,22.4
		c-0.6,0.7-1.5,1.1-2.4,1.1c-0.9,0-1.8-0.4-2.4-1.1c-0.5-0.6-2.6-3-4.9-6.2c-3,7.3-9.4,14.6-10.3,15.6c-0.6,0.7-1.5,1.1-2.4,1.1
		c-0.9,0-1.8-0.4-2.4-1.1c-0.4-0.4-1.8-2.1-3.6-4.4c-2.7,7.8-9.8,15.9-10.8,17c-0.6,0.7-1.5,1.1-2.4,1.1c-0.9,0-1.8-0.4-2.4-1.1
		C69.3,98,58.6,85.9,58.6,77c0-3.8,1.5-7.3,4-9.9c-2.3-3.9-4.2-8.2-4.2-12.1c0-3.8,1.5-7.3,4-9.8c-2.2-3.8-4-8-4-11.6
		c0-7.8,6.4-14.2,14.3-14.2c6.7,0,12.3,4.6,13.8,10.8c1.7-0.7,3.6-1.1,5.6-1.1c1.3,0,2.6,0.2,3.9,0.5c0-0.1,0.1-0.2,0.1-0.3
		c0.8-1.8,1.8-3.5,3.2-5.2c1-1.3,2.1-2.4,3.4-3.3c-1.3,0-2.6-0.2-3.8-0.5c-2.5-0.5-4.6-1.6-6.2-3.2c-1.6-1.6-2.7-3.7-3.2-6.2
		c-0.5-2.4-0.6-5-0.3-7.3c0.1-0.5,0.1-0.9,0.2-1.1L89.5,1l1.5-0.3c0.2,0,0.6-0.1,1.1-0.1c2.4-0.2,4.9-0.2,7.3,0.3
		c2.5,0.5,4.6,1.6,6.2,3.2c1.6,1.6,2.7,3.7,3.2,6.2c0.5,2.4,0.6,4.8,0.4,7.1c2.3-0.7,4.8-1,7.6-0.9c1.6-2.1,3.7-3.9,6.2-5.6
		c1.9-1.3,4-2.3,6.1-3.2C130.3,7.1,131.3,6.8,131.9,6.6z M72.7,23.6c-5.5,0-10,4.5-10,10c0,2.6,1.3,5.8,3.1,9c2-1.1,4.4-1.8,6.9-1.8
		c1.8,0,3.6,0.4,5.2,1c0.4-3.6,2.1-6.9,4.7-9.2C82.2,27.6,77.9,23.6,72.7,23.6z M62.7,55.1c0,2.7,1.5,6.2,3.4,9.5
		c2-1.1,4.3-1.7,6.8-1.7c1.7,0,3.4,0.3,5,0.9c0.2-3.5,1.6-6.6,3.9-9c0.3-0.3,0.6-0.6,0.9-0.9c-0.2-1.8-1-3.5-2-4.9
		c-0.6-0.8-1.4-1.5-2.2-2.1c-0.3-0.2-0.7-0.4-1-0.6c-1.4-0.7-2.9-1.1-4.6-1.1c-1.7,0-3.2,0.4-4.6,1.1c-1.3,0.7-2.4,1.6-3.3,2.7
		C63.5,50.6,62.7,52.8,62.7,55.1z M82.9,77.8c0-0.2,0-0.5,0-0.7c0-2.5-0.9-4.7-2.4-6.5c-0.5-0.5-1-1-1.6-1.5
		c-0.1-0.1-0.2-0.2-0.4-0.3c-0.5-0.3-0.9-0.6-1.4-0.8c-1.3-0.6-2.7-0.9-4.2-0.9c-1.6,0-3.2,0.4-4.5,1.1c-0.6,0.3-1.2,0.7-1.8,1.1
		c-0.6,0.5-1.1,1-1.5,1.5c-1.4,1.7-2.2,3.9-2.2,6.2c0,5.6,6.2,14.2,10,18.7C76.6,91.4,82.4,83.3,82.9,77.8z M101.9,66.7
		c0.2-0.8,0.3-1.5,0.3-2.2c0-0.9-0.1-1.7-0.3-2.5c-0.2-0.8-0.5-1.6-0.9-2.4c-0.2-0.4-0.5-0.8-0.8-1.1c-0.6-0.8-1.3-1.5-2.2-2.1
		c-0.3-0.2-0.7-0.5-1.1-0.7c-1.4-0.8-3-1.2-4.8-1.2c-1.7,0-3.3,0.4-4.8,1.2c-0.1,0.1-0.3,0.2-0.4,0.3c-0.9,0.6-1.8,1.3-2.5,2.1
		c-0.1,0.1-0.2,0.3-0.3,0.4c-1.1,1.5-1.9,3.3-2,5.3c0,0.2,0,0.4,0,0.6c0,0.6,0.1,1.2,0.2,1.9c0.2,0.2,0.4,0.3,0.5,0.5
		c2.5,2.5,4.2,5.9,4.3,9.7c1.7,2.5,3.5,4.8,5,6.6C95.5,79.2,100.6,72.1,101.9,66.7z M105.7,47.4c-2,1.7-3.4,4.2-3.6,7
		c0.1,0.1,0.2,0.2,0.3,0.3c2.4,2.5,3.9,6,3.9,9.7c0,0.4,0,0.9-0.1,1.4c1.9,3,4.1,5.9,5.8,7.9c3.8-4.5,10-13.1,10-18.7
		c0-5.5-4.5-10-10-10C109.7,45.1,107.5,46,105.7,47.4z M102.1,43.3c0-5.5-4.5-10-10-10c-5.5,0-10,4.5-10,10c0,0.4,0,0.8,0.1,1.2
		c2,1.8,3.6,4.2,4.3,6.9c1.7-0.7,3.6-1.2,5.6-1.2c2.2,0,4.3,0.5,6.2,1.4c0.6-2.5,1.9-4.7,3.6-6.5C102.1,44.5,102.1,43.9,102.1,43.3z
		 M105,16.5c0.1-1.7,0.1-3.5-0.3-5.2c-0.4-1.7-1.1-3.1-2.1-4.1c-1-1-2.4-1.7-4.1-2.1c-1.7-0.4-3.5-0.4-5.2-0.3
		c-0.1,1.7-0.1,3.5,0.3,5.2c0.4,1.7,1.1,3.1,2.1,4.1c1,1,2.4,1.7,4.1,2.1C101.4,16.5,103.3,16.6,105,16.5z M124.4,24.7
		c0-1.9-1.5-3.4-3.5-3.4c-1.9,0-3.5,1.5-3.5,3.4c0,1.9,1.5,3.4,3.5,3.4C122.8,28.1,124.4,26.6,124.4,24.7z"/>
	<g class="st1">
		<path class="st2" d="M29.4,128.6L23.8,148h-5.3L15,134.4L11.5,148H5.9L0,128.6h5l3.5,15l3.8-15h5.3l3.5,15l3.5-15H29.4z"/>
		<path class="st2" d="M32.1,125.3c-0.6-0.6-0.9-1.2-0.9-2.1s0.3-1.5,0.9-2.1c0.6-0.6,1.2-0.9,2.1-0.9s1.5,0.3,2.1,0.9
			s0.9,1.2,0.9,2.1s-0.3,1.5-0.9,2.1s-1.2,0.9-2.1,0.9C33.5,126.2,32.6,125.9,32.1,125.3z M36.8,128.6V148h-5v-19.4H36.8z"/>
		<path class="st2" d="M57.6,130.3c1.5,1.5,2.1,3.5,2.1,6.2V148h-5v-10.9c0-1.5-0.3-2.6-1.2-3.5s-1.8-1.2-3.2-1.2s-2.4,0.3-3.2,1.2
			s-1.2,2.1-1.2,3.5V148h-4.7v-19.4h5v2.4c0.6-0.9,1.5-1.5,2.6-2.1c0.9-0.6,2.1-0.6,3.2-0.6C54.4,128.3,56.2,128.9,57.6,130.3z"/>
		<path class="st2" d="M82.1,139.7H67.6c0,1.5,0.6,2.6,1.5,3.2c0.9,0.9,2.1,1.2,3.2,1.2c1.8,0,3.2-0.9,3.8-2.4h5.3
			c-0.6,1.8-1.8,3.5-3.2,4.7c-1.5,1.2-3.5,1.8-5.9,1.8c-1.8,0-3.5-0.3-5-1.2c-1.5-0.9-2.6-2.1-3.5-3.5c-0.9-1.5-1.2-3.2-1.2-5.3
			s0.3-3.8,1.2-5.3c0.9-1.5,2.1-2.6,3.5-3.5s3.2-1.2,5-1.2c1.8,0,3.5,0.3,5,1.2c1.5,0.9,2.6,2.1,3.5,3.5c0.9,1.5,1.2,3.2,1.2,5
			C82.4,138.6,82.4,139.1,82.1,139.7z M77.1,136.5c0-1.2-0.6-2.4-1.5-2.9c-0.9-0.9-2.1-1.2-3.2-1.2c-1.2,0-2.4,0.3-3.2,1.2
			c-0.9,0.9-1.5,1.8-1.5,2.9H77.1z"/>
		<path class="st2" d="M96.5,147.4c-1.2-0.6-2.4-1.5-2.9-2.4c-0.6-0.9-1.2-2.1-1.2-3.2h5c0,0.9,0.6,1.5,1.2,1.8
			c0.6,0.3,1.5,0.9,2.4,0.9s1.8-0.3,2.4-0.6c0.6-0.3,0.9-0.9,0.9-1.5c0-0.6-0.3-1.2-0.9-1.5c-0.6-0.3-1.8-0.6-2.9-1.2
			c-1.5-0.3-2.6-0.6-3.5-1.2c-0.9-0.3-1.8-0.9-2.4-1.8c-0.6-0.9-0.9-1.8-0.9-3.2c0-1.2,0.3-2.1,0.9-2.9c0.6-0.9,1.5-1.5,2.6-2.1
			s2.6-0.9,4.1-0.9c2.4,0,4.1,0.6,5.6,1.8s2.1,2.6,2.4,4.7h-4.7c0-0.9-0.3-1.5-0.9-1.8c-0.6-0.6-1.5-0.6-2.4-0.6s-1.5,0.3-2.1,0.6
			c-0.6,0.3-0.6,0.9-0.6,1.5c0,0.6,0.3,1.2,0.9,1.5c0.6,0.3,1.8,0.6,2.9,1.2c1.5,0.3,2.6,0.6,3.5,1.2s1.8,0.9,2.4,1.8
			c0.6,0.9,0.9,1.8,1.2,3.2c0,1.2-0.3,2.1-0.9,2.9c-0.6,0.9-1.5,1.5-2.6,2.1c-1.2,0.6-2.6,0.9-4.1,0.9
			C99.4,148.3,97.9,148,96.5,147.4z"/>
		<path class="st2" d="M130.6,128.6V148h-5v-2.4c-0.6,0.9-1.5,1.5-2.4,2.1c-0.9,0.6-2.1,0.6-3.2,0.6c-1.5,0-2.9-0.3-4.1-0.9
			c-1.2-0.6-2.1-1.5-2.6-2.9c-0.6-1.5-0.9-2.6-0.9-4.4v-11.5h5v10.6c0,1.5,0.3,2.6,1.2,3.5s1.8,1.2,3.2,1.2s2.4-0.3,3.2-1.2
			c0.9-0.9,1.2-2.1,1.2-3.5v-10.9h4.4V128.6z"/>
		<path class="st2" d="M135.6,125.3c-0.6-0.6-0.9-1.2-0.9-2.1s0.3-1.5,0.9-2.1c0.6-0.6,1.2-0.9,2.1-0.9s1.5,0.3,2.1,0.9
			s0.9,1.2,0.9,2.1s-0.3,1.5-0.9,2.1c-0.6,0.6-1.2,0.9-2.1,0.9S136.2,125.9,135.6,125.3z M140,128.6V148h-5v-19.4H140z"/>
		<path class="st2" d="M150.3,132.4v9.4c0,0.6,0.3,1.2,0.6,1.5c0.3,0.3,0.9,0.6,1.5,0.6h2.4v4.1h-3.2c-4.1,0-6.2-2.1-6.2-6.2v-9.4
			h-2.4v-4.1h2.4v-4.7h5v4.7h4.4v4.1C154.7,132.4,150.3,132.4,150.3,132.4z"/>
		<path class="st2" d="M175.9,139.7h-14.4c0,1.5,0.6,2.6,1.5,3.2c0.9,0.9,2.1,1.2,3.2,1.2c1.8,0,3.2-0.9,3.8-2.4h5.3
			c-0.6,1.8-1.8,3.5-3.2,4.7c-1.5,1.2-3.5,1.8-5.9,1.8c-1.8,0-3.5-0.3-5-1.2c-1.5-0.9-2.6-2.1-3.5-3.5c-0.9-1.5-1.2-3.2-1.2-5.3
			s0.3-3.8,1.2-5.3c0.9-1.5,2.1-2.6,3.5-3.5c1.5-0.9,3.2-1.2,5-1.2c1.8,0,3.5,0.3,5,1.2c1.5,0.9,2.6,2.1,3.5,3.5
			c0.9,1.5,1.2,3.2,1.2,5C175.9,138.6,175.9,139.1,175.9,139.7z M170.9,136.5c0-1.2-0.6-2.4-1.5-2.9c-0.9-0.9-2.1-1.2-3.2-1.2
			c-1.2,0-2.4,0.3-3.2,1.2c-0.9,0.9-1.5,1.8-1.5,2.9H170.9z"/>
	</g>
</g>
</svg>
