<?xml version="1.0" encoding="utf-8"?>
<!-- Generator: Adobe Illustrator 26.1.0, SVG Export Plug-In . SVG Version: 6.00 Build 0)  -->
<svg version="1.1" id="Livello_1" xmlns="http://www.w3.org/2000/svg" xmlns:xlink="http://www.w3.org/1999/xlink" x="0px" y="0px"
	 viewBox="0 0 231.2 184.5" style="enable-background:new 0 0 231.2 184.5;" xml:space="preserve">
<style type="text/css">
	.st0{fill:#003b71;}
</style>
<g>
	<path class="st0" d="M160.1,14.9L87.8,87.2c-7.4,7.4-19.5,7.4-27,0l-31-31l-0.3-0.3c-7.1-7.4-7-19.4,0.3-26.7
		c7.4-7.4,19.5-7.4,27,0l33,33l14.3-14.3l-33-33c-15.3-15.3-40.3-15.3-55.7,0c-15.3,15.3-15.3,40.3,0,55.7l31,31
		c7.4,7.4,17.3,11.5,27.8,11.5s20.4-4.1,27.8-11.5l72.3-72.3l0.3-0.3c7.4-7.1,19.4-7,26.7,0.3c7.4,7.4,7.4,19.5,0,27l-31,31
		l-0.3,0.3c-7.4,7.1-19.4,7-26.7-0.3l-2-2l-14.3,14.3l2,2c7.4,7.4,17.3,11.5,27.8,11.5s20.4-4.1,27.8-11.5l31-31
		c15.3-15.3,15.3-40.3,0-55.7C200.4-0.4,175.4-0.4,160.1,14.9z"/>
	<g>
		<g>
			<path class="st0" d="M102.2,153c-8.2,0-13.8,6-13.8,13.8c0,7.8,5.5,13.8,14.3,13.8c5,0,8.9-2,11.4-5.6l-5.4-3.1
				c-1.2,1.5-3.2,2.6-5.9,2.6c-3.6,0-6.4-1.5-7.4-4.9h19.7c0.2-0.9,0.3-1.8,0.3-2.8C115.5,159.1,110,153,102.2,153z M95.4,164.4
				c0.8-3.3,3.2-5.3,6.9-5.3c2.8,0,5.6,1.5,6.5,5.3H95.4z"/>
			<path class="st0" d="M74.2,153c-3.5,0-6.2,1.3-7.8,3.7v-2.9h-6.7v26.1h6.7v-14.1c0-4.5,2.5-6.5,5.8-6.5c3,0,5.2,1.8,5.2,5.4v15.2
				H84v-16.1C84,156.9,79.7,153,74.2,153z"/>
			<rect x="46.7" y="153.8" class="st0" width="6.7" height="26.1"/>
			<path class="st0" d="M50.1,142.3c-2.2,0-4.1,1.9-4.1,4.2s1.9,4.1,4.1,4.1c2.3,0,4.2-1.9,4.2-4.1S52.4,142.3,50.1,142.3z"/>
			<polygon class="st0" points="31.4,169.9 26.7,153.8 20.3,153.8 15.5,169.8 11.1,153.8 3.9,153.8 12.2,179.9 18.7,179.9 
				23.5,164.1 28.3,179.9 34.7,179.9 43,153.8 35.9,153.8 			"/>
			<path class="st0" d="M162.6,167.5c0,7-3.9,9.7-8.5,9.7c-4.5,0-7.1-2.7-7.1-7.4v-16.1h-3.5v16.1c0,6.5,3.9,10.7,10.2,10.7
				c3.7,0,6.7-1.4,8.8-4.7v4.1h3.5v-26.1h-3.5V167.5z"/>
			<path class="st0" d="M123.5,160.6c0-2.8,2.8-4.1,5.5-4.1c2.5,0,5.2,1,6.3,3.7l2.9-1.7c-1.5-3.2-4.9-5.3-9.2-5.3
				c-5.2,0-8.9,3.3-8.9,7.5c0,9.6,15.3,5.9,15.3,12.4c0,3.1-2.9,4.2-6,4.2c-3.5,0-6.2-1.7-7.2-4.4l-2.9,1.7c1.3,3.3,4.9,6,10.1,6
				c5.6,0,9.5-3.1,9.5-7.5C138.7,163.4,123.5,167.1,123.5,160.6z"/>
			<path class="st0" d="M227.3,166.9c0-7.2-5-13.8-13-13.8c-8.1,0-13.6,6-13.6,13.7c0,7.9,5.6,13.7,13.9,13.7c5.3,0,9.3-2.5,11.5-6
				l-3-1.8c-1.4,2.5-4.3,4.4-8.4,4.4c-5.5,0-9.7-3.3-10.4-8.6h23C227.2,168,227.3,167.5,227.3,166.9z M204.2,165.2
				c0.7-5.1,4.6-8.7,10.1-8.7c4.5,0,8.7,3,9.4,8.7H204.2z"/>
			<path class="st0" d="M190.5,146.4l-3.5,1v6.3h-5.5v3.3h5.5V173c0,6.3,3.9,8,11,7v-3c-5.1,0.2-7.5,0.6-7.5-3.9v-15.8h7.5v-3.3
				h-7.5V146.4z"/>
			<rect x="173.4" y="153.8" class="st0" width="3.5" height="26.1"/>
			<path class="st0" d="M175.1,142.3c-1.4,0-2.5,1.2-2.5,2.5s1.1,2.5,2.5,2.5s2.5-1.2,2.5-2.5S176.5,142.3,175.1,142.3z"/>
		</g>
		<path class="st0" d="M102.1,153.1c-8.2,0-13.8,6-13.8,13.8c0,7.8,5.5,13.8,14.3,13.8c5,0,8.9-2,11.4-5.6l-5.4-3.1
			c-1.1,1.5-3.2,2.6-5.8,2.6c-3.5,0-6.4-1.5-7.4-4.9h19.7c0.2-0.9,0.3-1.8,0.3-2.8C115.3,159.2,109.9,153.1,102.1,153.1z
			 M95.3,164.4c0.8-3.3,3.2-5.3,6.8-5.3c2.8,0,5.6,1.5,6.5,5.3H95.3z"/>
		<path class="st0" d="M74.1,153.1c-3.5,0-6.2,1.3-7.8,3.7v-2.9h-6.7v26.1h6.7v-14.1c0-4.5,2.5-6.5,5.7-6.5c3,0,5.2,1.8,5.2,5.4
			v15.2H84v-16C84,156.9,79.7,153.1,74.1,153.1z"/>
		<rect x="46.7" y="153.8" class="st0" width="6.7" height="26.1"/>
		<polygon class="st0" points="31.5,169.9 26.7,153.8 20.4,153.8 15.6,169.8 11.2,153.8 4,153.8 12.3,179.9 18.8,179.9 23.6,164.1 
			28.4,179.9 34.8,179.9 43.1,153.8 35.9,153.8 		"/>
		<path class="st0" d="M162.4,167.5c0,7-3.9,9.7-8.5,9.7c-4.5,0-7.1-2.7-7.1-7.4v-16h-3.4v16c0,6.5,3.9,10.7,10.2,10.7
			c3.7,0,6.7-1.4,8.8-4.7v4.1h3.4v-26.1h-3.4V167.5z"/>
		<path class="st0" d="M123.3,160.7c0-2.8,2.8-4.1,5.5-4.1c2.5,0,5.2,1,6.3,3.7l2.9-1.7c-1.5-3.2-4.9-5.3-9.1-5.3
			c-5.2,0-8.9,3.3-8.9,7.5c0,9.6,15.2,5.9,15.2,12.4c0,3.1-2.9,4.2-6,4.2c-3.5,0-6.2-1.7-7.1-4.4l-2.9,1.7c1.3,3.3,4.9,6,10.1,6
			c5.6,0,9.4-3.1,9.4-7.5C138.6,163.4,123.3,167.1,123.3,160.7z"/>
		<path class="st0" d="M226.9,167c0-7.1-5-13.8-12.9-13.8c-8.1,0-13.6,6-13.6,13.7c0,7.9,5.6,13.7,13.9,13.7c5.3,0,9.3-2.5,11.5-6
			l-3-1.8c-1.4,2.5-4.3,4.4-8.4,4.4c-5.5,0-9.7-3.3-10.4-8.6h22.9C226.9,168.1,226.9,167.5,226.9,167z M203.9,165.2
			c0.7-5.1,4.6-8.7,10.1-8.7c4.5,0,8.7,3,9.4,8.7H203.9z"/>
		<path class="st0" d="M190.2,146.5l-3.4,1v6.3h-5.5v3.3h5.5V173c0,6.3,3.9,8,11,6.9v-3c-5.1,0.2-7.5,0.6-7.5-3.9v-15.8h7.5v-3.3
			h-7.5V146.5z"/>
		<rect x="173.2" y="153.8" class="st0" width="3.4" height="26.1"/>
	</g>
</g>
</svg>
